HIERARCHY
ROOT Hips
{
	OFFSET -0.001795 -0.223333 0.028219
	CHANNELS 6 Xposition Yposition Zposition Zrotation Yrotation Xrotation 
	JOINT LeftUpLeg
	{
		OFFSET 0.069520 -0.091406 -0.006815
		CHANNELS 3 Zrotation Yrotation Xrotation
		JOINT LeftLeg
		{
			OFFSET 0.034277 -0.375199 -0.004496
			CHANNELS 3 Zrotation Yrotation Xrotation
			JOINT LeftFoot
			{
				OFFSET -0.013596 -0.397961 -0.043693
				CHANNELS 3 Zrotation Yrotation Xrotation
				JOINT LeftToe
				{
					OFFSET 0.026358 -0.055791 0.119288
					CHANNELS 3 Zrotation Yrotation Xrotation
					End Site
					{
						OFFSET 0.000000 0.000000 0.000000
					}
				}
			}
		}
	}
	JOINT RightUpLeg
	{
		OFFSET -0.067670 -0.090522 -0.004320
		CHANNELS 3 Zrotation Yrotation Xrotation
		JOINT RightLeg
		{
			OFFSET -0.038290 -0.382569 -0.008850
			CHANNELS 3 Zrotation Yrotation Xrotation
			JOINT RightFoot
			{
				OFFSET 0.015774 -0.398415 -0.042312
				CHANNELS 3 Zrotation Yrotation Xrotation
				JOINT RightToe
				{
					OFFSET -0.025372 -0.048144 0.123348
					CHANNELS 3 Zrotation Yrotation Xrotation
					End Site
					{
						OFFSET 0.000000 0.000000 0.000000
					}
				}
			}
		}
	}
	JOINT Spine
	{
		OFFSET -0.002533 0.108963 -0.026696
		CHANNELS 3 Zrotation Yrotation Xrotation
		JOINT Spine1
		{
			OFFSET 0.005487 0.135180 0.001092
			CHANNELS 3 Zrotation Yrotation Xrotation
			JOINT Spine2
			{
				OFFSET 0.001457 0.052922 0.025425
				CHANNELS 3 Zrotation Yrotation Xrotation
				JOINT Neck
				{
					OFFSET -0.002778 0.213870 -0.042857
					CHANNELS 3 Zrotation Yrotation Xrotation
					JOINT Head
					{
						OFFSET 0.005152 0.064970 0.051349
						CHANNELS 3 Zrotation Yrotation Xrotation
						End Site
						{
							OFFSET 0.000000 0.000000 0.000000
						}
					}
				}
				JOINT LeftShoulder
				{
					OFFSET 0.078845 0.121749 -0.034090
					CHANNELS 3 Zrotation Yrotation Xrotation
					JOINT LeftArm
					{
						OFFSET 0.090977 0.030469 -0.008868
						CHANNELS 3 Zrotation Yrotation Xrotation
						JOINT LeftForeArm
						{
							OFFSET 0.259612 -0.012772 -0.027456
							CHANNELS 3 Zrotation Yrotation Xrotation
							JOINT LeftHand
							{
								OFFSET 0.249234 0.008986 -0.001171
								CHANNELS 3 Zrotation Yrotation Xrotation
								End Site
								{
									OFFSET 0.000000 0.000000 0.000000
								}
							}
						}
					}
				}
				JOINT RightShoulder
				{
					OFFSET -0.081759 0.118833 -0.038615
					CHANNELS 3 Zrotation Yrotation Xrotation
					JOINT RightArm
					{
						OFFSET -0.096012 0.032551 -0.009143
						CHANNELS 3 Zrotation Yrotation Xrotation
						JOINT RightForeArm
						{
							OFFSET -0.253742 -0.013329 -0.021401
							CHANNELS 3 Zrotation Yrotation Xrotation
							JOINT RightHand
							{
								OFFSET -0.255298 0.007772 -0.005559
								CHANNELS 3 Zrotation Yrotation Xrotation
								End Site
								{
									OFFSET 0.000000 0.000000 0.000000
								}
							}
						}
					}
				}
			}
		}
	}
}
MOTION
Frames: 8
Frame Time: 0.050000
0.022091 0.942755 0.052657 -3.151401 11.241595 3.027706 7.240023 -0.479834 -5.505091 -4.853493 0.398338 3.066948 -3.148950 -3.525529 4.542081 0.000000 0.000000 0.000000 -0.544319 0.170867 -1.556517 0.810687 -0.030981 3.123680 -3.924242 -11.073863 11.581854 0.000000 0.000000 0.000000 5.487713 0.055917 -2.322481 -9.546142 4.170096 -4.774372 -2.688063 19.217762 12.846676 16.806807 -4.956773 -22.361272 0.000000 0.000000 0.000000 -14.414521 -21.999105 3.354377 -56.502701 -18.134863 1.596425 8.862267 -40.270536 -4.825874 0.000000 0.000000 0.000000 11.218857 21.963317 14.381681 77.173222 50.884696 35.534493 -174.771816 73.461781 -152.629919 0.000000 0.000000 0.000000 
0.021440 0.942761 0.053431 -3.210466 11.184233 3.073358 7.504974 -0.483557 -5.540371 -5.118817 0.426210 3.106273 -3.130096 -3.472661 4.575813 0.000000 0.000000 0.000000 -0.428820 0.168096 -1.523520 0.796732 -0.030699 3.015367 -3.894252 -11.020612 11.570320 0.000000 0.000000 0.000000 5.524837 0.054165 -2.318349 -9.524545 4.162982 -4.728049 -2.752183 19.344981 12.684628 17.070551 -5.114688 -22.347597 0.000000 0.000000 0.000000 -14.839796 -22.415487 3.435469 -56.536241 -18.324307 1.788449 9.405347 -39.566737 -4.917419 0.000000 0.000000 0.000000 11.378858 22.011054 14.502235 76.603786 50.484625 34.757653 -178.562383 72.704551 -157.329560 0.000000 0.000000 0.000000 
0.021009 0.943023 0.053601 -3.176989 11.170843 3.209074 7.466851 -0.489914 -5.699684 -5.059777 0.420117 3.145968 -3.141794 -3.430353 4.678950 0.000000 0.000000 0.000000 -0.455303 0.180093 -1.639505 0.830991 -0.036847 2.970799 -3.883730 -11.004940 11.640254 0.000000 0.000000 0.000000 5.630206 0.050398 -2.320125 -9.618191 4.200795 -4.674215 -3.006936 19.526189 12.361311 17.095525 -5.096924 -22.346666 0.000000 0.000000 0.000000 -14.913925 -22.731050 3.507473 -56.674029 -19.083264 2.186059 10.021900 -39.208564 -5.122443 0.000000 0.000000 0.000000 11.556609 21.989329 14.623071 76.229573 50.300617 34.341708 179.329778 72.470532 -160.064131 0.000000 0.000000 0.000000 
0.020684 0.943387 0.053466 -3.179904 11.422730 3.267748 7.456516 -0.498285 -5.807833 -4.968105 0.406795 3.113022 -3.283686 -3.596896 4.825809 0.000000 0.000000 0.000000 -0.446265 0.172591 -1.562515 0.913495 -0.055624 2.730566 -3.969348 -11.157384 11.837290 0.000000 0.000000 0.000000 5.771412 0.047208 -2.332372 -9.768875 4.265924 -4.509855 -3.009682 19.713991 12.178922 16.970103 -5.004698 -22.230897 0.000000 0.000000 0.000000 -15.178791 -23.307586 3.624889 -56.855075 -19.810234 2.621941 11.040077 -38.880776 -5.507778 0.000000 0.000000 0.000000 11.817268 22.106902 14.880168 75.481480 50.137442 33.661627 178.452418 72.349400 -161.093279 0.000000 0.000000 0.000000 
0.020383 0.943404 0.053174 -3.120761 11.790701 3.505606 7.529038 -0.514808 -6.005514 -5.131649 0.417313 2.855793 -3.477544 -3.842218 5.000013 0.000000 0.000000 0.000000 -0.427666 0.169498 -1.523393 0.883342 -0.062466 2.243349 -4.125491 -11.427085 11.963405 0.000000 0.000000 0.000000 5.931039 0.045756 -2.420383 -9.745190 4.254861 -4.423190 -3.082613 19.704110 11.992311 16.882901 -4.899789 -22.290494 0.000000 0.000000 0.000000 -15.134193 -23.462051 3.648284 -57.116321 -20.603351 3.000114 12.056679 -38.453291 -5.848065 0.000000 0.000000 0.000000 12.020597 22.317621 15.148058 75.223880 50.195601 33.507235 178.158958 72.675449 -161.551365 0.000000 0.000000 0.000000 
0.019945 0.943633 0.052827 -2.977361 11.937371 3.783308 7.566053 -0.527514 -6.192271 -5.402558 0.440022 2.590131 -3.613057 -3.908344 5.291032 0.000000 0.000000 0.000000 -0.645626 0.173948 -1.564942 1.072219 -0.099984 1.804066 -4.169293 -11.501630 12.086879 0.000000 0.000000 0.000000 6.044741 0.046613 -2.524280 -9.954601 4.332117 -4.443523 -2.887663 20.015493 12.031860 16.732973 -4.664890 -22.583509 0.000000 0.000000 0.000000 -15.086177 -23.839188 3.730646 -57.109058 -21.055628 3.225690 13.551190 -38.068322 -6.405206 0.000000 0.000000 0.000000 12.333648 22.081546 15.253598 75.595271 50.072808 33.613425 175.505357 72.911803 -165.024879 0.000000 0.000000 0.000000 
0.019425 0.943711 0.052417 -2.872565 12.402514 4.031245 7.463406 -0.540744 -6.272027 -5.312015 0.421858 2.080737 -3.868999 -4.224810 5.514805 0.000000 0.000000 0.000000 -0.621346 0.175997 -1.577318 0.993246 -0.098422 1.408302 -4.380671 -11.863043 12.229605 0.000000 0.000000 0.000000 6.179893 0.048761 -2.656159 -9.930428 4.312683 -4.525196 -2.871938 20.128749 12.118431 16.820696 -4.601274 -22.820264 0.000000 0.000000 0.000000 -15.129358 -23.896625 3.647818 -56.848145 -21.178134 3.299238 15.309357 -37.420622 -6.999137 0.000000 0.000000 0.000000 12.735016 22.286658 15.647679 76.244281 49.832644 33.745433 173.711327 72.932089 -167.260244 0.000000 0.000000 0.000000 
0.018844 0.943812 0.051990 -2.767779 12.757434 4.307395 7.361065 -0.555272 -6.440710 -5.227127 0.407103 1.705897 -4.069661 -4.446923 5.726456 0.000000 0.000000 0.000000 -0.641982 0.196515 -1.776137 0.974991 -0.100013 1.266713 -4.554877 -12.159134 12.327463 0.000000 0.000000 0.000000 6.321884 0.059151 -2.892026 -10.134658 4.390015 -4.449874 -2.688954 20.449102 12.154915 16.882944 -4.444598 -23.261555 0.000000 0.000000 0.000000 -15.001393 -24.092050 3.635724 -56.341906 -21.326800 3.359837 16.724016 -37.080950 -7.541523 0.000000 0.000000 0.000000 12.943508 22.037112 15.727219 77.441312 50.170595 34.871900 173.170880 73.493182 -167.880754 0.000000 0.000000 0.000000 
